<?xml version="1.0" encoding="UTF-8"?>
<svg width="218px" height="218px" viewBox="0 0 218 218" version="1.1" xmlns="http://www.w3.org/2000/svg" xmlns:xlink="http://www.w3.org/1999/xlink">
    <title>编组 22备份 9</title>
    <defs>
        <filter x="-6.0%" y="-6.0%" width="112.0%" height="112.0%" filterUnits="objectBoundingBox" id="filter-1">
            <feOffset dx="0" dy="2" in="SourceAlpha" result="shadowOffsetOuter1"></feOffset>
            <feGaussianBlur stdDeviation="2" in="shadowOffsetOuter1" result="shadowBlurOuter1"></feGaussianBlur>
            <feColorMatrix values="0 0 0 0 0   0 0 0 0 0   0 0 0 0 0  0 0 0 0.5 0" type="matrix" in="shadowBlurOuter1" result="shadowMatrixOuter1"></feColorMatrix>
            <feMerge>
                <feMergeNode in="shadowMatrixOuter1"></feMergeNode>
                <feMergeNode in="SourceGraphic"></feMergeNode>
            </feMerge>
        </filter>
        <linearGradient x1="43.389861%" y1="3.81204422%" x2="43.389861%" y2="106.664327%" id="linearGradient-2">
            <stop stop-color="#36AFFA" offset="0%"></stop>
            <stop stop-color="#0175FE" offset="67.8746667%"></stop>
            <stop stop-color="#0364FE" offset="100%"></stop>
        </linearGradient>
        <path d="M83.3333333,31.5789474 C94.4759204,31.5789474 103.508772,40.6117989 103.508772,51.754386 C103.508772,57.3988532 101.19085,62.5019408 97.4549452,66.1637114 C101.924518,81.2977059 109.350599,91.0774865 119.731824,96.0677957 L120.306124,96.3375985 L120.518398,96.435033 L121.468443,96.9392675 L122.193853,97.3134648 L122.903632,97.668486 L123.600936,98.0049598 L124.288923,98.3235149 L124.970749,98.62478 L125.649571,98.9093838 L126.328545,99.1779553 C126.441896,99.2214161 126.555384,99.264235 126.669076,99.3064253 L127.354198,99.5521269 C127.468968,99.5918546 127.584073,99.6309798 127.699579,99.6695156 L128.397951,99.893762 L129.109103,100.104491 L129.836191,100.302331 L130.582372,100.487911 L131.350803,100.66186 L132.14464,100.824806 C132.279239,100.851082 132.415028,100.876925 132.552073,100.90235 L133.389938,101.049971 L134.261102,101.188162 L135.168721,101.31755 L136.115951,101.438766 L137.10595,101.552436 L138.141874,101.659191 L139.22688,101.75966 L140.364124,101.854469 L142.174843,101.98745 L144.120856,102.111237 L146.94441,102.26565 L147.777472,102.304521 C151.103717,95.7330059 157.920504,91.2280702 165.789474,91.2280702 C176.932061,91.2280702 185.964912,100.260922 185.964912,111.403509 C185.964912,122.546096 176.932061,131.578947 165.789474,131.578947 C156.723673,131.578947 149.05446,125.599443 146.510574,117.369175 L145.860018,117.337436 L144.241498,117.248969 L141.93723,117.107717 L140.478844,117.006805 L139.079052,116.899663 L137.734736,116.785578 L136.442776,116.663833 L135.200053,116.533714 L134.003448,116.394507 C133.807684,116.370508 133.613711,116.346102 133.421465,116.321271 L132.288188,116.16709 C132.102589,116.140507 131.918586,116.11347 131.736115,116.085966 L130.659148,115.915203 L129.615822,115.732491 L128.603019,115.537117 C128.436588,115.503459 128.271299,115.469244 128.107088,115.434457 L127.134218,115.218747 L126.184072,114.988587 C126.027435,114.948983 125.871614,114.908747 125.716546,114.867864 L124.794637,114.614688 L123.887654,114.345274 C123.737561,114.298979 123.58796,114.251977 123.438785,114.204255 L122.548343,113.909144 C122.105163,113.757142 121.664657,113.598381 121.225069,113.432458 L120.346597,113.090945 L119.467455,112.72962 L118.584524,112.347768 L117.694684,111.944674 L116.794816,111.519624 L115.881802,111.071902 L114.952521,110.600794 L113.702831,109.944882 L113.233656,109.725989 C104.169748,105.398958 96.8345305,98.6404973 91.2278449,89.5871332 L91.2286006,131.427901 C98.4474676,134.500642 103.508772,141.659255 103.508772,150 C103.508772,161.142587 94.4759204,170.175439 83.3333333,170.175439 C72.1907463,170.175439 63.1578947,161.142587 63.1578947,150 C63.1578947,141.659255 68.2191991,134.500642 75.4380661,131.427901 L75.4380661,70.3264854 C68.2191991,67.2537443 63.1578947,60.0951306 63.1578947,51.754386 C63.1578947,40.6117989 72.1907463,31.5789474 83.3333333,31.5789474 Z M83.3333333,137.296946 C76.3176304,137.296946 70.6302794,142.984297 70.6302794,150 C70.6302794,157.015703 76.3176304,162.703054 83.3333333,162.703054 C90.3490363,162.703054 96.0363873,157.015703 96.0363873,150 C96.0363873,142.984297 90.3490363,137.296946 83.3333333,137.296946 Z M165.789474,98.7004548 C158.773771,98.7004548 153.08642,104.387806 153.08642,111.403509 C153.08642,118.419212 158.773771,124.106563 165.789474,124.106563 C172.805177,124.106563 178.492528,118.419212 178.492528,111.403509 C178.492528,104.387806 172.805177,98.7004548 165.789474,98.7004548 Z M83.3333333,39.051332 C76.3176304,39.051332 70.6302794,44.738683 70.6302794,51.754386 C70.6302794,58.7700889 76.3176304,64.4574399 83.3333333,64.4574399 C90.3490363,64.4574399 96.0363873,58.7700889 96.0363873,51.754386 C96.0363873,44.738683 90.3490363,39.051332 83.3333333,39.051332 Z" id="path-3"></path>
        <filter x="-1.2%" y="-1.1%" width="104.9%" height="103.6%" filterUnits="objectBoundingBox" id="filter-4">
            <feOffset dx="2" dy="1" in="SourceAlpha" result="shadowOffsetOuter1"></feOffset>
            <feGaussianBlur stdDeviation="0.5" in="shadowOffsetOuter1" result="shadowBlurOuter1"></feGaussianBlur>
            <feColorMatrix values="0 0 0 0 0   0 0 0 0 0.279292357   0 0 0 0 0.753028759  0 0 0 1 0" type="matrix" in="shadowBlurOuter1"></feColorMatrix>
        </filter>
    </defs>
    <g id="页面-1" stroke="none" stroke-width="1" fill="none" fill-rule="evenodd">
        <g id="LOGO+字体" transform="translate(-1025.000000, -974.000000)">
            <g id="编组-22备份-9" filter="url(#filter-1)" transform="translate(1034.000000, 983.000000)">
                <g id="编组-22备份">
                    <circle id="椭圆形备份-15" fill="#005FF6" cx="100" cy="100" r="100"></circle>
                    <path d="M100,0 C155.228475,0 200,44.771525 200,100 C200,100.188772 199.999477,100.377423 199.998432,100.56595 C137.311221,122.290104 70.6469049,122.030052 0.00293055548,99.7871254 C0.116954344,44.6546649 44.8436493,0 100,0 Z" id="形状结合" fill="url(#linearGradient-2)"></path>
                    <g id="路径-33" fill-rule="nonzero">
                        <use fill="black" fill-opacity="1" filter="url(#filter-4)" xlink:href="#path-3"></use>
                        <use fill="#FFFFFF" xlink:href="#path-3"></use>
                    </g>
                    <circle id="椭圆形" fill="#02F3FF" cx="83.3333333" cy="51.754386" r="7.89473684"></circle>
                </g>
            </g>
        </g>
    </g>
</svg>